<svg width="21" height="21" viewBox="0 0 21 21" fill="none" xmlns="http://www.w3.org/2000/svg">
<g id="airplay">
<path id="Icon" d="M5.13666 14.6735H4.30172C3.85884 14.6735 3.4341 14.4976 3.12093 14.1844C2.80777 13.8713 2.63184 13.4465 2.63184 13.0037V4.65426C2.63184 4.21138 2.80777 3.78664 3.12093 3.47347C3.4341 3.16031 3.85884 2.98438 4.30172 2.98438H17.6608C18.1036 2.98438 18.5284 3.16031 18.8416 3.47347C19.1547 3.78664 19.3306 4.21138 19.3306 4.65426V13.0037C19.3306 13.4465 19.1547 13.8713 18.8416 14.1844C18.5284 14.4976 18.1036 14.6735 17.6608 14.6735H16.8258M10.9812 13.0037L15.1559 18.0133H6.80654L10.9812 13.0037Z" stroke="white" stroke-width="1.66988" stroke-linecap="round" stroke-linejoin="round"/>
</g>
</svg>
