<svg width="124" height="63" viewBox="0 0 124 63" fill="none" xmlns="http://www.w3.org/2000/svg">
<g id="Group">
<path id="Vector" d="M9.30427 20.293L17.5145 37.8763H15.6117L12.8632 32.0974H5.28722L2.53872 37.8763H0.56543L8.88142 20.293H9.30427ZM9.09284 24.0281L6.06244 30.406H12.088L9.09284 24.0281Z" fill="white"/>
<path id="Vector_2" d="M18.3936 34.6383L19.8735 33.7573C20.9306 35.6954 22.1287 36.6468 23.503 36.6468C24.8772 36.6468 24.6305 36.5058 25.1591 36.2239C25.6877 35.942 26.0753 35.5897 26.3572 35.1316C26.6391 34.6735 26.78 34.1802 26.78 33.6516C26.78 33.1231 26.5686 32.4888 26.181 31.925C25.6172 31.1498 24.6305 30.1984 23.1858 29.106C21.7059 28.0137 20.7897 27.2032 20.4373 26.7099C19.803 25.8642 19.5211 24.9833 19.5211 24.0319C19.5211 23.0805 19.6973 22.5519 20.0849 21.9529C20.4373 21.3186 20.9659 20.8253 21.6354 20.4729C22.3049 20.1205 23.0096 19.9443 23.8201 19.9443C24.6305 19.9443 25.441 20.1558 26.1457 20.5434C26.8505 20.9662 27.6257 21.7062 28.4362 22.7986L26.9914 23.8909C26.3219 23.01 25.7581 22.4462 25.3001 22.1643C24.842 21.8824 24.3134 21.7414 23.7848 21.7414C23.2563 21.7414 22.4811 21.9529 22.0582 22.3757C21.6001 22.7985 21.3887 23.3271 21.3887 23.9614C21.3887 24.5956 21.4592 24.7014 21.6354 25.089C21.8116 25.4413 22.0935 25.829 22.5163 26.2518C22.763 26.4632 23.503 27.0623 24.7715 28.0137C26.2867 29.1413 27.3438 30.1279 27.9076 31.0088C28.4714 31.8898 28.7533 32.7707 28.7533 33.6516C28.7533 34.9202 28.26 36.0477 27.3086 36.9639C26.3572 37.9153 25.1591 38.3734 23.7848 38.3734C22.4106 38.3734 21.7411 38.0915 20.8954 37.5277C20.0145 36.9639 19.2392 36.0125 18.4993 34.6735L18.3936 34.6383Z" fill="white"/>
<path id="Vector_3" d="M32.4825 20.3282H35.971C37.9795 20.3282 39.3185 20.3987 40.0233 20.5749C41.0099 20.8215 41.8556 21.3149 42.4899 22.0901C43.1241 22.8653 43.4413 23.8167 43.4413 24.9795C43.4413 26.1423 43.1241 27.129 42.5251 27.869C41.8908 28.6442 41.0451 29.1375 39.9528 29.4194C39.1423 29.5956 37.6624 29.7013 35.4777 29.7013H34.2091V37.8763H32.4473V20.293L32.4825 20.3282ZM34.2444 22.0548V28.0099H37.2043C38.4024 28.0452 39.2833 27.9395 39.8471 27.728C40.4109 27.5166 40.8337 27.1642 41.1509 26.6709C41.468 26.1776 41.6442 25.649 41.6442 25.0148C41.6442 24.3805 41.468 23.8872 41.1509 23.3938C40.8337 22.9005 40.4109 22.5481 39.8823 22.3367C39.3538 22.1253 38.5081 22.0196 37.31 22.0196H34.2091L34.2444 22.0548Z" fill="white"/>
<path id="Vector_4" d="M45.5264 30.5857H52.1157V32.0304H45.5264V30.5857Z" fill="white"/>
<g id="Group_2">
<path id="Vector_5" d="M0 44.469L0.493319 44.1871C0.845691 44.8214 1.23331 45.1385 1.69139 45.1385C2.14948 45.1385 2.07899 45.1033 2.25518 44.9976C2.43137 44.8919 2.57232 44.7862 2.64279 44.6452C2.7485 44.5043 2.78374 44.3281 2.78374 44.1519C2.78374 43.9757 2.71327 43.7643 2.57232 43.5881C2.39614 43.3414 2.04376 43.0243 1.58568 42.6367C1.09235 42.2843 0.775217 42.0024 0.669505 41.8262C0.458082 41.5443 0.352372 41.2624 0.352372 40.9453C0.352372 40.6282 0.422847 40.452 0.528558 40.2406C0.63427 40.0291 0.810456 39.8529 1.05712 39.7472C1.26854 39.6415 1.5152 39.571 1.7971 39.571C2.079 39.571 2.32566 39.6415 2.57232 39.7825C2.81898 39.9234 3.06564 40.1701 3.34754 40.5225L2.85422 40.8748C2.64279 40.5929 2.43137 40.3815 2.29042 40.311C2.14947 40.2053 1.97329 40.1701 1.7971 40.1701C1.62091 40.1701 1.37425 40.2406 1.2333 40.3815C1.09235 40.5225 1.02188 40.6986 1.02188 40.9101C1.02188 41.1215 1.02188 41.1567 1.09236 41.2977C1.16283 41.4034 1.2333 41.5443 1.37425 41.6853C1.44472 41.7558 1.69139 41.9672 2.11423 42.2843C2.60756 42.6719 2.95993 42.9891 3.17135 43.271C3.34754 43.5529 3.45326 43.87 3.45326 44.1519C3.45326 44.5747 3.27706 44.9623 2.95993 45.2442C2.64279 45.5614 2.25518 45.7023 1.7971 45.7023C1.33902 45.7023 1.12759 45.5966 0.845691 45.4204C0.563794 45.2442 0.2819 44.9271 0.0352394 44.469H0Z" fill="white"/>
<path id="Vector_6" d="M10.3245 41.0864C10.994 41.0864 11.5578 41.3331 11.9807 41.8264C12.3683 42.2845 12.5797 42.7778 12.5797 43.3768C12.5797 43.9759 12.3683 44.5044 11.9454 44.9625C11.5226 45.4206 10.994 45.632 10.3245 45.632C9.65502 45.632 9.12646 45.4206 8.70361 44.9625C8.28077 44.5044 8.06934 43.9759 8.06934 43.3768C8.06934 42.7778 8.28076 42.2493 8.66837 41.8264C9.09122 41.3331 9.65502 41.0864 10.3245 41.0864ZM10.3245 41.6502C9.86644 41.6502 9.47883 41.8264 9.12645 42.1788C8.77408 42.5312 8.63313 42.9188 8.63313 43.4121C8.63313 43.9054 8.70361 44.0111 8.84456 44.293C8.98551 44.5749 9.19694 44.7863 9.4436 44.9273C9.69026 45.0682 9.97215 45.1387 10.2893 45.1387C10.6064 45.1387 10.8883 45.0682 11.135 44.9273C11.3816 44.7863 11.5931 44.5749 11.734 44.293C11.875 44.0111 11.9454 43.7292 11.9454 43.4121C11.9454 42.9188 11.7692 42.4959 11.4521 42.1788C11.135 41.8616 10.7121 41.6502 10.254 41.6502H10.3245Z" fill="white"/>
<path id="Vector_7" d="M17.2305 39.5359H17.7943V45.5614H17.2305V39.5359Z" fill="white"/>
<path id="Vector_8" d="M22.587 41.2273H23.1508V43.2358C23.1508 43.7291 23.1508 44.0815 23.2213 44.2577C23.2917 44.5396 23.4679 44.7158 23.6794 44.892C23.8908 45.0329 24.1727 45.1386 24.4898 45.1386C24.8069 45.1386 25.0536 45.0682 25.265 44.9272C25.4765 44.7863 25.6174 44.5748 25.7231 44.3282C25.7936 44.152 25.7936 43.7996 25.7936 43.271V41.2625H26.3574V43.3768C26.3574 43.9758 26.2869 44.4339 26.146 44.7158C26.005 45.0329 25.7936 45.2443 25.5117 45.4205C25.2298 45.5967 24.8774 45.6672 24.4546 45.6672C24.0317 45.6672 23.6793 45.5967 23.3974 45.4205C23.1156 45.2443 22.9041 44.9977 22.7632 44.7158C22.6222 44.3986 22.5518 43.9406 22.5518 43.3415V41.2625L22.587 41.2273Z" fill="white"/>
<path id="Vector_9" d="M31.784 39.6064H32.3478V41.2274H33.2287V41.7207H32.3478V45.5615H31.784V41.7207H31.0088V41.2274H31.784V39.6064Z" fill="white"/>
<path id="Vector_10" d="M37.9512 39.4302C38.0922 39.4302 38.1979 39.4654 38.2684 39.5711C38.3741 39.6768 38.4093 39.7826 38.4093 39.8883C38.4093 39.994 38.3741 40.1349 38.2684 40.2054C38.1627 40.3111 38.057 40.3463 37.9512 40.3463C37.8455 40.3463 37.7046 40.3111 37.6341 40.2054C37.5284 40.0997 37.4932 39.994 37.4932 39.8883C37.4932 39.7826 37.5284 39.6416 37.6341 39.5711C37.7398 39.4654 37.8455 39.4302 37.9512 39.4302ZM37.6694 41.2273H38.2332V45.5615H37.6694V41.2273Z" fill="white"/>
<path id="Vector_11" d="M45.139 41.0864C45.8085 41.0864 46.3723 41.3331 46.7951 41.8264C47.1827 42.2845 47.3942 42.7778 47.3942 43.3768C47.3942 43.9759 47.1827 44.5044 46.7599 44.9625C46.337 45.4206 45.8085 45.632 45.139 45.632C44.4695 45.632 43.9409 45.4206 43.5181 44.9625C43.0952 44.5044 42.8838 43.9759 42.8838 43.3768C42.8838 42.7778 43.0952 42.2493 43.4828 41.8264C43.9057 41.3331 44.4695 41.0864 45.139 41.0864ZM45.139 41.6502C44.6809 41.6502 44.2933 41.8264 43.9409 42.1788C43.6238 42.5312 43.4476 42.9188 43.4476 43.4121C43.4476 43.9054 43.5181 44.0111 43.659 44.293C43.8 44.5749 44.0114 44.7863 44.258 44.9273C44.5047 45.0682 44.7866 45.1387 45.1038 45.1387C45.4209 45.1387 45.7028 45.0682 45.9494 44.9273C46.1961 44.7863 46.4075 44.5749 46.5485 44.293C46.6894 44.0111 46.7599 43.7292 46.7599 43.4121C46.7599 42.9188 46.5837 42.4959 46.2666 42.1788C45.9494 41.8264 45.5266 41.6502 45.0685 41.6502H45.139Z" fill="white"/>
<path id="Vector_12" d="M52.1515 41.227H52.7152V42.0023C52.9267 41.7204 53.1733 41.4737 53.4552 41.3328C53.7371 41.1918 54.019 41.1213 54.3362 41.1213C54.6533 41.1213 54.9352 41.1918 55.1819 41.368C55.4285 41.5442 55.6047 41.7556 55.7456 42.0375C55.8514 42.3194 55.9218 42.7422 55.9218 43.3413V45.5612H55.358V43.4822C55.358 42.9889 55.358 42.6365 55.2876 42.4956C55.2171 42.2137 55.1114 42.0023 54.9 41.8613C54.7238 41.7204 54.4771 41.6499 54.1952 41.6499C53.9133 41.6499 53.5609 41.7556 53.279 41.967C52.9971 42.1785 52.821 42.4603 52.7505 42.8127C52.68 43.0241 52.68 43.4117 52.68 43.9755V45.5612H52.1162V41.227H52.1515Z" fill="white"/>
<path id="Vector_13" d="M63.0049 41.6855L62.6526 42.0731C62.3707 41.7912 62.0535 41.6502 61.7716 41.6502C61.4897 41.6502 61.4193 41.7207 61.3135 41.8264C61.2078 41.9321 61.1374 42.0731 61.1374 42.2493C61.1374 42.4254 61.2078 42.5312 61.3135 42.6369C61.4193 42.7778 61.6307 42.9188 61.983 43.0949C62.4059 43.3064 62.6878 43.5178 62.8287 43.7292C62.9697 43.9406 63.0402 44.1521 63.0402 44.3987C63.0402 44.6454 62.8992 45.0682 62.6526 45.3149C62.4059 45.5616 62.0888 45.7025 61.7011 45.7025C61.3135 45.7025 61.2078 45.632 60.9964 45.5263C60.785 45.4206 60.5736 45.2797 60.4326 45.0682L60.785 44.6806C61.0669 44.9978 61.384 45.174 61.7011 45.174C62.0183 45.174 62.124 45.1035 62.2649 44.9625C62.4059 44.8216 62.5116 44.6454 62.5116 44.4692C62.5116 44.293 62.4764 44.1521 62.3707 44.0464C62.265 43.9406 62.0183 43.7645 61.6659 43.5883C61.2783 43.3769 60.9964 43.2007 60.8554 42.9892C60.7145 42.7778 60.644 42.5664 60.644 42.3197C60.644 42.0731 60.7497 41.7207 60.9964 41.5093C61.2078 41.2978 61.4897 41.1921 61.8421 41.1921C62.1945 41.1921 62.6525 41.4036 63.0402 41.7912L63.0049 41.6855Z" fill="white"/>
</g>
<g id="Group_3">
<path id="Vector_14" d="M73.0118 47.2179L73.3994 47.6759C73.5756 47.8521 73.6813 48.0283 73.7165 48.134C73.7517 48.2397 73.787 48.3807 73.7165 48.5216C73.7165 48.6626 73.6108 48.7683 73.5051 48.8388C73.3994 48.9092 73.2937 48.9797 73.188 48.9797C73.0822 48.9797 72.9413 48.9797 72.8004 48.9445C72.8708 49.0854 72.9061 49.2264 72.9061 49.3321C72.9061 49.4378 72.9061 49.5435 72.8708 49.6492C72.8356 49.7549 72.7651 49.8254 72.6946 49.8959C72.5185 50.0368 72.307 50.1073 72.0956 50.0721C71.8489 50.0721 71.6375 49.9311 71.4261 49.6845L70.8623 49.0502L72.9413 47.1826L73.0118 47.2179ZM72.1308 48.4159L71.3204 49.1207L71.567 49.4026C71.708 49.5788 71.8489 49.6845 71.9547 49.7197C72.0604 49.7549 72.1661 49.7902 72.2718 49.7902C72.3775 49.7902 72.4832 49.7549 72.5537 49.6845C72.6594 49.614 72.6946 49.5083 72.6946 49.3673C72.6946 49.2264 72.6946 49.1207 72.5889 48.9797C72.5537 48.874 72.4128 48.7331 72.2366 48.5569L72.1308 48.4159ZM73.0118 47.6055L72.3423 48.2045L72.448 48.3455C72.5889 48.4864 72.6946 48.5921 72.8004 48.6626C72.9061 48.6978 72.9765 48.7331 73.0822 48.7331C73.188 48.7331 73.2584 48.6978 73.3289 48.6273C73.4346 48.5569 73.4699 48.4512 73.4699 48.3102C73.4699 48.2045 73.3994 48.0635 73.2232 47.8874L72.9765 47.6407L73.0118 47.6055Z" fill="white"/>
<path id="Vector_15" d="M75.1254 49.4729L76.4292 50.6357L76.253 50.8472L75.1606 49.8958L74.5616 50.5653L75.6539 51.5167L75.4778 51.7281L74.3854 50.7767L73.6454 51.5871L74.7378 52.5385L74.5616 52.75L73.2578 51.5871L75.1254 49.4729Z" fill="white"/>
<path id="Vector_16" d="M78.7552 52.3625L79.0371 52.5034L78.6143 54.5824L80.3409 53.2082H80.4113L80.1999 55.4281L81.7151 53.9481L81.997 54.0891L79.8828 56.1328H79.8476L80.059 53.8072L78.2267 55.2167H78.1914L78.7552 52.292V52.3625Z" fill="white"/>
<path id="Vector_17" d="M83.1254 54.5117L83.4073 54.6174L82.3854 57.225L82.1035 57.1193L83.1254 54.5117Z" fill="white"/>
<path id="Vector_18" d="M84.3585 55.2872L84.4289 55.0405L86.0499 55.4986L85.9794 55.7453L85.3099 55.5691L84.6051 58.0005L84.3232 57.8947L85.028 55.4634L84.3585 55.2872Z" fill="white"/>
<path id="Vector_19" d="M87.1065 55.7451H87.4237C87.4237 55.7804 87.2122 56.9432 87.2122 56.9432L88.7627 57.1898L88.9741 56.027H89.2912C89.2912 56.0622 88.8332 58.846 88.8332 58.846H88.516C88.516 58.8108 88.7274 57.4717 88.7274 57.4717L87.177 57.2251L86.9656 58.5641H86.6484C86.6484 58.5289 87.1065 55.7451 87.1065 55.7451Z" fill="white"/>
<path id="Vector_20" d="M92.251 56.5557V56.2738L93.9071 56.2385V56.5204H93.2376L93.3081 59.0575H92.9909L92.9205 56.5204H92.251V56.5557Z" fill="white"/>
<path id="Vector_21" d="M95 56.1679H95.3171C95.3171 56.1326 95.4933 57.2955 95.4933 57.2955L97.0438 57.0841L96.8676 55.9212H97.1847C97.1847 55.886 97.5723 58.6697 97.5723 58.6697H97.2552C97.2552 58.705 97.0438 57.3659 97.0438 57.3659L95.4933 57.5774L95.7047 58.9164H95.3876C95.3876 58.9516 95 56.1679 95 56.1679Z" fill="white"/>
<path id="Vector_22" d="M98.5236 55.5338L100.215 55.0757L100.285 55.3576L98.876 55.7452L99.1226 56.5909L100.497 56.2033L100.567 56.4852L99.1931 56.8728L99.475 57.9299L100.849 57.5423L100.92 57.8242L99.2283 58.2823L98.4531 55.569L98.5236 55.5338Z" fill="white"/>
<path id="Vector_23" d="M105.818 53.1025L105.677 53.3492C105.501 53.2787 105.289 53.2435 105.078 53.2435C104.866 53.2435 104.69 53.314 104.479 53.4197C104.267 53.5254 104.091 53.7016 103.95 53.8778C103.809 54.0539 103.739 54.2654 103.739 54.4768C103.739 54.6882 103.739 54.8996 103.88 55.1111C104.056 55.4282 104.303 55.6044 104.62 55.6749C104.937 55.7453 105.289 55.6749 105.642 55.5339C106.029 55.3225 106.276 55.0406 106.382 54.6177H106.664C106.628 54.8644 106.523 55.0758 106.346 55.2872C106.205 55.4634 105.994 55.6396 105.747 55.7806C105.289 56.0272 104.831 56.0977 104.408 55.9568C104.056 55.851 103.774 55.6044 103.598 55.252C103.422 54.8996 103.386 54.512 103.527 54.1244C103.668 53.7368 103.95 53.4197 104.373 53.2083C104.62 53.0673 104.866 52.9968 105.113 52.9968C105.36 52.9968 105.606 52.9968 105.818 53.1025Z" fill="white"/>
<path id="Vector_24" d="M106.593 51.9397L106.839 51.7635L107.544 52.7149L108.777 51.7987L108.073 50.8473L108.319 50.6711L110.011 52.9263L109.764 53.1025L108.954 52.0102L107.72 52.9263L108.531 54.0187L108.284 54.1949L106.593 51.9397Z" fill="white"/>
<path id="Vector_25" d="M110.258 48.8738L113.253 49.8604L113.006 50.1071L112.02 49.7899L111.104 50.7061L111.421 51.6928L111.174 51.9394L110.223 48.9442L110.293 48.8738H110.258ZM110.646 49.3319L110.998 50.4242L111.738 49.6842L110.646 49.3319Z" fill="white"/>
<path id="Vector_26" d="M114.24 48.6626L111.984 47.0064V46.9359C112.02 46.9359 114.98 46.5836 114.98 46.5836L113.253 45.315L113.429 45.0684L115.684 46.7245V46.795C115.649 46.795 112.724 47.1474 112.724 47.1474L114.451 48.4159L114.275 48.6626H114.24Z" fill="white"/>
<path id="Vector_27" d="M115.931 41.5093L116.001 41.8265C115.79 41.897 115.614 42.0027 115.438 42.1789C115.261 42.3198 115.156 42.496 115.05 42.6369C114.944 42.8484 114.874 43.095 114.874 43.3065C114.874 43.5531 114.909 43.7645 115.05 43.9407C115.191 44.1169 115.297 44.2579 115.473 44.3636C115.649 44.4693 115.86 44.5045 116.107 44.4693C116.319 44.4693 116.53 44.3636 116.741 44.2226C116.953 44.0817 117.094 43.9055 117.2 43.6588C117.34 43.3769 117.411 43.095 117.34 42.8484C117.27 42.6017 117.164 42.355 116.953 42.2141L116.495 43.095L116.248 42.9541L116.847 41.7913C117.235 42.0027 117.481 42.2846 117.587 42.6369C117.693 42.9893 117.622 43.3769 117.411 43.7998C117.164 44.2931 116.777 44.6102 116.319 44.7512C115.966 44.8569 115.614 44.8217 115.297 44.6455C115.05 44.5398 114.874 44.3283 114.733 44.1169C114.592 43.9055 114.521 43.6236 114.521 43.3417C114.521 43.0598 114.592 42.7779 114.733 42.496C114.839 42.2493 115.015 42.0731 115.191 41.897C115.367 41.7208 115.614 41.6151 115.86 41.4741L115.931 41.5093Z" fill="white"/>
<path id="Vector_28" d="M116.001 39.9943L116.565 38.3381L116.811 38.4439L116.353 39.8181L117.199 40.1L117.657 38.761L117.904 38.8667L117.446 40.2057L118.503 40.5581L118.961 39.2191L119.208 39.3248L118.644 40.9809L116.001 40.0648V39.9943Z" fill="white"/>
</g>
<path id="Vector_29" d="M92.6385 62.5813C81.8207 62.5813 71.9543 57.1196 66.1754 47.9931L67.761 47.0065C73.1876 55.6044 82.4902 60.749 92.6738 60.749C108.918 60.749 122.097 47.535 122.097 31.3259C122.097 15.1168 108.883 1.90281 92.6738 1.90281C76.4646 1.90281 71.32 8.17504 66.3163 18.2177L64.6602 17.372C67.2325 12.2273 71.1438 7.89314 76.0065 4.8275C81.0102 1.65615 86.7891 0 92.709 0C109.975 0 124 14.0244 124 31.2907C124 48.5569 109.975 62.5813 92.709 62.5813H92.6385Z" fill="white"/>
<path id="Vector_30" d="M92.4269 54.5472C86.1195 54.5472 80.2349 52.0806 75.8302 47.5702L76.1473 47.2531C80.4815 51.6577 86.2604 54.0891 92.4269 54.0891C105.007 54.0891 115.261 43.835 115.261 31.2554C115.261 18.6757 105.007 8.42163 92.4269 8.42163C79.8473 8.42163 77.874 12.1215 73.6103 18.3233L73.2227 18.0766C77.5921 11.7692 84.7452 7.99878 92.4269 7.99878C105.289 7.99878 115.719 18.4642 115.719 31.2906C115.719 44.1169 105.253 54.5824 92.4269 54.5824V54.5472Z" fill="white"/>
<g id="Group_4">
<path id="Vector_31" d="M55.1113 20.3318H58.5998C60.5379 20.3318 61.8769 20.4023 62.5816 20.5784C63.6387 20.8251 64.4844 21.3184 65.1187 22.1289C65.7882 22.9041 66.1053 23.8907 66.1053 25.0183C66.1053 26.1459 65.8939 26.8154 65.4358 27.5554C64.9777 28.2954 64.3435 28.824 63.4978 29.2116C62.6521 29.5992 61.4893 29.7754 60.0445 29.7754L66.352 37.9504H64.1673L57.8598 29.7754H56.8732V37.9504H55.1113V20.367V20.3318ZM56.8732 22.0584V28.0487H59.9036C61.0664 28.0487 61.9474 27.9783 62.5111 27.7316C63.0749 27.5202 63.4978 27.1678 63.8149 26.6745C64.1321 26.1812 64.273 25.6526 64.273 25.0183C64.273 24.3841 64.0968 23.8907 63.7797 23.3974C63.4626 22.9041 63.0397 22.587 62.5111 22.3755C61.9826 22.1641 61.1369 22.0584 59.9388 22.0584H56.838H56.8732Z" fill="white"/>
<path id="Vector_32" d="M86.3012 23.5149L84.927 24.572C84.1518 23.5853 83.2356 22.8101 82.1785 22.3168C81.1214 21.7882 79.9233 21.5416 78.6547 21.5416C77.3862 21.5416 75.9415 21.8939 74.7434 22.5635C73.5454 23.233 72.6292 24.1491 71.9597 25.2767C71.2902 26.4043 70.973 27.6728 70.973 29.1176C70.973 31.267 71.713 33.0641 73.193 34.4736C74.6729 35.9184 76.5053 36.6231 78.7605 36.6231C81.0156 36.6231 83.2708 35.6717 84.927 33.7336L86.3012 34.7908C85.4203 35.9184 84.328 36.7641 83.0242 37.3631C81.7204 37.9621 80.2404 38.2792 78.6195 38.2792C75.5539 38.2792 73.1225 37.2574 71.3254 35.2136C69.8454 33.487 69.1055 31.408 69.1055 28.9414C69.1055 26.4748 70.0216 24.1844 71.8187 22.4577C73.6158 20.6959 75.871 19.8149 78.6195 19.8149C81.368 19.8149 81.7556 20.1321 83.0594 20.8016C84.3984 21.4359 85.4555 22.352 86.3012 23.5501V23.5149Z" fill="white"/>
<path id="Vector_33" d="M90.3841 27.9779L88.9746 37.8795H90.666L91.7936 29.5988C91.2298 29.1407 90.7365 28.5769 90.3841 27.9426V27.9779Z" fill="white"/>
<path id="Vector_34" d="M106.276 20.3318H105.994L100.427 31.6782C100.779 32.3829 101.026 33.1581 101.061 33.9686L105.325 25.3355L107.051 37.9152H108.778L106.241 20.3318H106.276Z" fill="white"/>
<path id="Vector_35" d="M91.7934 11.9805C91.7934 11.9805 84.8164 19.1336 91.8991 28.7534C96.8676 35.4837 98.0656 36.5408 98.1009 46.3015C98.1009 46.3015 104.655 37.8446 96.8676 28.0839C90.1373 19.6622 92.0401 14.729 91.8287 11.9805H91.7934Z" fill="white"/>
</g>
<path id="Vector_36" d="M92.8853 15.0815C92.8853 15.0815 92.7091 18.6053 94.0833 20.6843C95.4576 22.7633 97.9947 25.0889 98.488 28.5774C98.488 28.5774 98.8756 23.8204 96.4795 20.9309C96.4795 20.9309 94.2948 18.7462 92.8853 15.0815Z" fill="#D4D7D6"/>
</g>
</svg>
