<svg width="21" height="21" viewBox="0 0 21 21" fill="none" xmlns="http://www.w3.org/2000/svg">
<g id="file-text">
<path id="Icon" d="M12.6512 2.2002H5.97164C5.52876 2.2002 5.10402 2.37613 4.79085 2.68929C4.47769 3.00246 4.30176 3.4272 4.30176 3.87008V17.2291C4.30176 17.672 4.47769 18.0967 4.79085 18.4099C5.10402 18.7231 5.52876 18.899 5.97164 18.899H15.9909C16.4338 18.899 16.8585 18.7231 17.1717 18.4099C17.4849 18.0967 17.6608 17.672 17.6608 17.2291V7.20984M12.6512 2.2002L17.6608 7.20984M12.6512 2.2002V7.20984H17.6608M14.321 11.3845H7.64152M14.321 14.7243H7.64152M9.3114 8.04478H7.64152" stroke="white" stroke-width="1.66988" stroke-linecap="round" stroke-linejoin="round"/>
</g>
</svg>
