<svg width="21" height="21" viewBox="0 0 21 21" fill="none" xmlns="http://www.w3.org/2000/svg">
<g id="paperclip" clip-path="url(#clip0_201_3002)">
<path id="Icon" d="M18.8627 9.74365L11.1896 17.4168C10.2496 18.3568 8.97462 18.8849 7.64524 18.8849C6.31586 18.8849 5.04093 18.3568 4.10092 17.4168C3.16091 16.4767 2.63281 15.2018 2.63281 13.8724C2.63281 12.5431 3.16091 11.2681 4.10092 10.3281L11.774 2.65501C12.4007 2.02833 13.2507 1.67627 14.1369 1.67627C15.0232 1.67627 15.8731 2.02833 16.4998 2.65501C17.1265 3.28168 17.4785 4.13164 17.4785 5.01789C17.4785 5.90414 17.1265 6.7541 16.4998 7.38077L8.81833 15.0539C8.505 15.3672 8.08002 15.5432 7.63689 15.5432C7.19377 15.5432 6.76879 15.3672 6.45545 15.0539C6.14211 14.7405 5.96608 14.3156 5.96608 13.8724C5.96608 13.4293 6.14211 13.0043 6.45545 12.691L13.5441 5.6107" stroke="white" stroke-width="1.66988" stroke-linecap="round" stroke-linejoin="round"/>
</g>
<defs>
<clipPath id="clip0_201_3002">
<rect width="20.0386" height="20.0386" fill="white" transform="translate(0.961914 0.517578)"/>
</clipPath>
</defs>
</svg>
