<svg width="21" height="21" viewBox="0 0 21 21" fill="none" xmlns="http://www.w3.org/2000/svg">
<g id="settings" clip-path="url(#clip0_201_3030)">
<g id="Icon">
<path d="M10.9812 12.9909C12.3646 12.9909 13.486 11.8695 13.486 10.4861C13.486 9.10273 12.3646 7.98128 10.9812 7.98128C9.59785 7.98128 8.4764 9.10273 8.4764 10.4861C8.4764 11.8695 9.59785 12.9909 10.9812 12.9909Z" stroke="white" stroke-width="1.66988" stroke-linecap="round" stroke-linejoin="round"/>
<path d="M17.1598 12.9909C17.0486 13.2428 17.0155 13.5221 17.0646 13.793C17.1137 14.0638 17.2428 14.3137 17.4353 14.5105L17.4854 14.5606C17.6407 14.7157 17.7638 14.8999 17.8479 15.1026C17.9319 15.3053 17.9752 15.5226 17.9752 15.7421C17.9752 15.9615 17.9319 16.1788 17.8479 16.3815C17.7638 16.5842 17.6407 16.7684 17.4854 16.9235C17.3303 17.0788 17.1462 17.2019 16.9434 17.286C16.7407 17.37 16.5234 17.4133 16.304 17.4133C16.0845 17.4133 15.8672 17.37 15.6645 17.286C15.4618 17.2019 15.2776 17.0788 15.1225 16.9235L15.0724 16.8734C14.8757 16.6809 14.6257 16.5518 14.3549 16.5027C14.084 16.4536 13.8047 16.4867 13.5528 16.5979C13.3059 16.7037 13.0953 16.8795 12.9469 17.1035C12.7986 17.3275 12.719 17.59 12.7179 17.8586V18.0006C12.7179 18.4435 12.542 18.8682 12.2288 19.1814C11.9156 19.4945 11.4909 19.6705 11.048 19.6705C10.6051 19.6705 10.1804 19.4945 9.86723 19.1814C9.55407 18.8682 9.37814 18.4435 9.37814 18.0006V17.9254C9.37167 17.6491 9.28222 17.381 9.1214 17.1562C8.96058 16.9314 8.73585 16.7601 8.4764 16.6647C8.22457 16.5535 7.94522 16.5204 7.67437 16.5695C7.40352 16.6186 7.15359 16.7477 6.95681 16.9402L6.90671 16.9903C6.75162 17.1456 6.56746 17.2687 6.36474 17.3528C6.16202 17.4368 5.94472 17.48 5.72527 17.48C5.50582 17.48 5.28853 17.4368 5.08581 17.3528C4.88309 17.2687 4.69892 17.1456 4.54383 16.9903C4.38857 16.8352 4.2654 16.651 4.18137 16.4483C4.09733 16.2456 4.05408 16.0283 4.05408 15.8089C4.05408 15.5894 4.09733 15.3721 4.18137 15.1694C4.2654 14.9667 4.38857 14.7825 4.54383 14.6274L4.59393 14.5773C4.78641 14.3805 4.91553 14.1306 4.96464 13.8598C5.01375 13.5889 4.9806 13.3096 4.86946 13.0577C4.76362 12.8108 4.58788 12.6002 4.36387 12.4518C4.13986 12.3035 3.87737 12.2239 3.6087 12.2228H3.46676C3.02388 12.2228 2.59914 12.0468 2.28597 11.7337C1.97281 11.4205 1.79688 10.9958 1.79688 10.5529C1.79688 10.11 1.97281 9.68528 2.28597 9.37212C2.59914 9.05895 3.02388 8.88302 3.46676 8.88302H3.5419C3.81826 8.87655 4.08629 8.7871 4.31113 8.62628C4.53598 8.46547 4.70724 8.24073 4.80266 7.98128C4.9138 7.72945 4.94696 7.4501 4.89785 7.17925C4.84874 6.9084 4.71962 6.65847 4.52713 6.46169L4.47703 6.41159C4.32177 6.25651 4.19861 6.07234 4.11457 5.86962C4.03053 5.6669 3.98728 5.4496 3.98728 5.23015C3.98728 5.01071 4.03053 4.79341 4.11457 4.59069C4.19861 4.38797 4.32177 4.2038 4.47703 4.04871C4.63212 3.89345 4.81629 3.77028 5.01901 3.68625C5.22173 3.60221 5.43903 3.55896 5.65848 3.55896C5.87792 3.55896 6.09522 3.60221 6.29794 3.68625C6.50066 3.77028 6.68483 3.89345 6.83992 4.04871L6.89001 4.09881C7.08679 4.29129 7.33672 4.42042 7.60757 4.46953C7.87842 4.51864 8.15777 4.48548 8.40961 4.37434H8.4764C8.72335 4.2685 8.93396 4.09276 9.08231 3.86875C9.23066 3.64475 9.31027 3.38225 9.31134 3.11358V2.97164C9.31134 2.52876 9.48727 2.10402 9.80044 1.79085C10.1136 1.47769 10.5383 1.30176 10.9812 1.30176C11.4241 1.30176 11.8488 1.47769 12.162 1.79085C12.4752 2.10402 12.6511 2.52876 12.6511 2.97164V3.04678C12.6522 3.31546 12.7318 3.57795 12.8801 3.80196C13.0285 4.02597 13.2391 4.2017 13.486 4.30754C13.7379 4.41869 14.0172 4.45184 14.2881 4.40273C14.5589 4.35362 14.8089 4.2245 15.0056 4.03201L15.0557 3.98192C15.2108 3.82666 15.395 3.70349 15.5977 3.61945C15.8004 3.53542 16.0177 3.49216 16.2372 3.49216C16.4566 3.49216 16.6739 3.53542 16.8766 3.61945C17.0794 3.70349 17.2635 3.82666 17.4186 3.98192C17.5739 4.137 17.697 4.32117 17.7811 4.52389C17.8651 4.72661 17.9084 4.94391 17.9084 5.16336C17.9084 5.38281 17.8651 5.6001 17.7811 5.80282C17.697 6.00554 17.5739 6.18971 17.4186 6.3448L17.3685 6.3949C17.176 6.59167 17.0469 6.8416 16.9978 7.11245C16.9487 7.3833 16.9818 7.66266 17.093 7.91449V7.98128C17.1988 8.22823 17.3746 8.43884 17.5986 8.58719C17.8226 8.73554 18.0851 8.81515 18.3537 8.81622H18.4957C18.9386 8.81622 19.3633 8.99216 19.6765 9.30532C19.9896 9.61848 20.1656 10.0432 20.1656 10.4861C20.1656 10.929 19.9896 11.3537 19.6765 11.6669C19.3633 11.9801 18.9386 12.156 18.4957 12.156H18.4205C18.1519 12.1571 17.8894 12.2367 17.6654 12.385C17.4414 12.5334 17.2656 12.744 17.1598 12.9909Z" stroke="white" stroke-width="1.66988" stroke-linecap="round" stroke-linejoin="round"/>
</g>
</g>
<defs>
<clipPath id="clip0_201_3030">
<rect width="20.0386" height="20.0386" fill="white" transform="translate(0.961914 0.466797)"/>
</clipPath>
</defs>
</svg>
