<svg width="21" height="21" viewBox="0 0 21 21" fill="none" xmlns="http://www.w3.org/2000/svg">
<g id="slack">
<g id="Icon">
<path d="M13.0686 8.84163C12.3756 8.84163 11.8162 8.28222 11.8162 7.58922V3.41452C11.8162 2.72152 12.3756 2.16211 13.0686 2.16211C13.7616 2.16211 14.321 2.72152 14.321 3.41452V7.58922C14.321 8.28222 13.7616 8.84163 13.0686 8.84163Z" stroke="white" stroke-width="1.66988" stroke-linecap="round" stroke-linejoin="round"/>
<path d="M18.0782 8.84163H16.8258V7.58922C16.8258 6.89622 17.3852 6.33681 18.0782 6.33681C18.7712 6.33681 19.3306 6.89622 19.3306 7.58922C19.3306 8.28222 18.7712 8.84163 18.0782 8.84163Z" stroke="white" stroke-width="1.66988" stroke-linecap="round" stroke-linejoin="round"/>
<path d="M8.89389 12.1814C9.58689 12.1814 10.1463 12.7408 10.1463 13.4338V17.6085C10.1463 18.3015 9.58689 18.8609 8.89389 18.8609C8.20089 18.8609 7.64148 18.3015 7.64148 17.6085V13.4338C7.64148 12.7408 8.20089 12.1814 8.89389 12.1814Z" stroke="white" stroke-width="1.66988" stroke-linecap="round" stroke-linejoin="round"/>
<path d="M3.88425 12.1814H5.13666V13.4338C5.13666 14.1268 4.57725 14.6862 3.88425 14.6862C3.19125 14.6862 2.63184 14.1268 2.63184 13.4338C2.63184 12.7408 3.19125 12.1814 3.88425 12.1814Z" stroke="white" stroke-width="1.66988" stroke-linecap="round" stroke-linejoin="round"/>
<path d="M12.6511 12.5989C12.6511 11.9059 13.2105 11.3465 13.9035 11.3465H18.0782C18.7712 11.3465 19.3306 11.9059 19.3306 12.5989C19.3306 13.2919 18.7712 13.8513 18.0782 13.8513H13.9035C13.2105 13.8513 12.6511 13.2919 12.6511 12.5989Z" stroke="white" stroke-width="1.66988" stroke-linecap="round" stroke-linejoin="round"/>
<path d="M13.9035 16.3561H12.6511V17.6085C12.6511 18.3015 13.2105 18.8609 13.9035 18.8609C14.5965 18.8609 15.1559 18.3015 15.1559 17.6085C15.1559 16.9155 14.5965 16.3561 13.9035 16.3561Z" stroke="white" stroke-width="1.66988" stroke-linecap="round" stroke-linejoin="round"/>
<path d="M9.31136 8.42416C9.31136 7.73116 8.75195 7.17175 8.05895 7.17175H3.88425C3.19125 7.17175 2.63184 7.73116 2.63184 8.42416C2.63184 9.11716 3.19125 9.67657 3.88425 9.67657H8.05895C8.75195 9.67657 9.31136 9.11716 9.31136 8.42416Z" stroke="white" stroke-width="1.66988" stroke-linecap="round" stroke-linejoin="round"/>
<path d="M8.05895 4.66693H9.31136V3.41452C9.31136 2.72152 8.75195 2.16211 8.05895 2.16211C7.36595 2.16211 6.80654 2.72152 6.80654 3.41452C6.80654 4.10752 7.36595 4.66693 8.05895 4.66693Z" stroke="white" stroke-width="1.66988" stroke-linecap="round" stroke-linejoin="round"/>
</g>
</g>
</svg>
