<svg width="21" height="21" viewBox="0 0 21 21" fill="none" xmlns="http://www.w3.org/2000/svg">
<g id="users" clip-path="url(#clip0_201_3012)">
<path id="Icon" d="M15.1559 18.0387V16.3688C15.1559 15.4831 14.8041 14.6336 14.1777 14.0072C13.5514 13.3809 12.7019 13.0291 11.8162 13.0291H5.13664C4.25088 13.0291 3.4014 13.3809 2.77507 14.0072C2.14874 14.6336 1.79688 15.4831 1.79688 16.3688V18.0387M20.1656 18.0387V16.3688C20.165 15.6288 19.9187 14.91 19.4654 14.3251C19.012 13.7403 18.3772 13.3226 17.6607 13.1376M14.321 3.11831C15.0394 3.30225 15.6761 3.72005 16.1308 4.30585C16.5855 4.89165 16.8324 5.61213 16.8324 6.3537C16.8324 7.09527 16.5855 7.81575 16.1308 8.40155C15.6761 8.98735 15.0394 9.40516 14.321 9.5891M11.8162 6.34953C11.8162 8.19403 10.3209 9.68929 8.4764 9.68929C6.6319 9.68929 5.13664 8.19403 5.13664 6.34953C5.13664 4.50503 6.6319 3.00977 8.4764 3.00977C10.3209 3.00977 11.8162 4.50503 11.8162 6.34953Z" stroke="white" stroke-width="1.66988" stroke-linecap="round" stroke-linejoin="round"/>
</g>
<defs>
<clipPath id="clip0_201_3012">
<rect width="20.0386" height="20.0386" fill="white" transform="translate(0.961914 0.504883)"/>
</clipPath>
</defs>
</svg>
